<?xml version="1.0" encoding="utf-8"?>
<!-- Generator: Adobe Illustrator 19.2.1, SVG Export Plug-In . SVG Version: 6.00 Build 0)  -->
<svg version="1.1" xmlns="http://www.w3.org/2000/svg" xmlns:xlink="http://www.w3.org/1999/xlink" x="0px" y="0px"
	 viewBox="0 0 1920 1080" style="enable-background:new 0 0 1920 1080;" xml:space="preserve">
<style type="text/css">
	.st0{fill:url(#SVGID_1_);}
	.st1{fill:url(#SVGID_2_);}
</style>
<g id="Layer_1">
	<g>
		<linearGradient id="SVGID_1_" gradientUnits="userSpaceOnUse" x1="33" y1="539.8188" x2="1038.2418" y2="539.8188">
			<stop  offset="0" style="stop-color:#F96676"/>
			<stop  offset="1" style="stop-color:#856A7D"/>
		</linearGradient>
		<path class="st0" d="M622.5,351.4L901.8,71H194.6C105.3,71,33,142.7,33,231.9v707.3l280.7-279.3l301.4,301.4
			c63.1,63.1,165.5,63.1,228.6,0L1038.2,767L622.5,351.4z"/>
		<linearGradient id="SVGID_2_" gradientUnits="userSpaceOnUse" x1="881.9005" y1="540.1477" x2="1887" y2="540.1477">
			<stop  offset="0" style="stop-color:#856A7D"/>
			<stop  offset="1" style="stop-color:#386C82"/>
		</linearGradient>
		<path class="st1" d="M1606.3,419.1l-301.4-301.4c-63.1-63.1-165.4-63.1-228.6,0L881.9,312.1l415.7,416.4L1018.3,1010h707.3
			c89.3,0,161.4-73.7,161.4-163V139.8L1606.3,419.1z"/>
	</g>
</g>
<g id="Layer_2">
</g>
</svg>
